<?xml version="1.0" encoding="UTF-8" standalone="no"?>
<!-- Created with Inkscape (http://www.inkscape.org/) -->

<svg
   width="189.22057mm"
   height="87.836037mm"
   viewBox="0 0 189.22057 87.836037"
   version="1.1"
   id="svg1"
   xml:space="preserve"
   sodipodi:docname="altgo-black.svg"
   inkscape:version="1.4 (e7c3feb100, 2024-10-09)"
   xmlns:inkscape="http://www.inkscape.org/namespaces/inkscape"
   xmlns:sodipodi="http://sodipodi.sourceforge.net/DTD/sodipodi-0.dtd"
   xmlns="http://www.w3.org/2000/svg"
   xmlns:svg="http://www.w3.org/2000/svg"><sodipodi:namedview
     id="namedview1"
     pagecolor="#ffffff"
     bordercolor="#000000"
     borderopacity="0.25"
     inkscape:showpageshadow="2"
     inkscape:pageopacity="0.0"
     inkscape:pagecheckerboard="0"
     inkscape:deskcolor="#d1d1d1"
     inkscape:document-units="mm"
     inkscape:zoom="1.3115866"
     inkscape:cx="357.58217"
     inkscape:cy="166.2109"
     inkscape:window-width="1920"
     inkscape:window-height="1024"
     inkscape:window-x="0"
     inkscape:window-y="0"
     inkscape:window-maximized="1"
     inkscape:current-layer="altgo-description" /><defs
     id="defs1"><linearGradient
       id="swatch15"><stop
         style="stop-color:#f5a9b8;stop-opacity:1;"
         offset="0"
         id="stop15" /></linearGradient></defs><g
     id="altgo-description"
     style="display:inline;fill:#000000;fill-opacity:1;stroke:none;stroke-width:0;stroke-linecap:butt;stroke-linejoin:bevel;stroke-dasharray:none;stroke-opacity:1;paint-order:stroke fill markers"
     transform="translate(-9.815103,-4.3321701)"><g
       id="altgo-logo"
       style="font-weight:bold;font-size:23.1442px;font-family:'Atkinson Hyperlegible Next';-inkscape-font-specification:'Atkinson Hyperlegible Next Bold';letter-spacing:0px;stroke:#ffffff;stroke-linecap:round;stroke-linejoin:round"
       aria-label="Alabama's Transgenderand Gender DiversityOrganizations"><path
         style="font-size:17.3581px;text-align:center;text-anchor:middle;opacity:1;fill-rule:evenodd;stroke:#f5a9b8;stroke-linecap:butt;paint-order:fill markers stroke"
         d="m 9.815103,57.060898 h 2.794654 l 0.711682,-2.135047 h 4.582539 l 0.711682,2.135047 h 2.794654 L 17.036073,45.465686 h -2.846729 z m 4.20066,-4.235377 1.579588,-4.651971 1.596945,4.651971 z m 11.143906,4.235377 h 1.562229 v -2.01354 h -0.711682 c -0.885263,0 -1.128277,-0.173581 -1.128277,-0.972054 v -9.303942 h -2.447492 v 9.911476 c 0,1.978824 0.676966,2.37806 2.725222,2.37806 z m 5.467811,0.208297 c 1.267141,0 2.256553,-0.381878 2.881444,-1.267141 l 0.312446,1.058844 h 2.273911 c -0.156222,-0.763757 -0.295087,-2.169763 -0.295087,-3.350114 v -1.909391 c 0,-2.568999 -1.353932,-3.575769 -3.818782,-3.575769 -1.874675,0 -3.228607,0.850547 -3.766708,2.030898 l 2.082972,0.729041 c 0.173581,-0.711683 0.781114,-1.076203 1.562229,-1.076203 1.041486,0 1.596945,0.486027 1.596945,1.492797 v 0.260371 c -3.523694,0.260372 -5.814964,1.058845 -5.814964,3.089742 0,1.562229 1.336574,2.516925 2.985594,2.516925 z m 0.885263,-1.701094 c -0.781115,0 -1.319216,-0.399236 -1.319216,-0.989412 0,-0.902621 1.197709,-1.267141 3.263323,-1.406006 v 0.347162 c 0,1.579587 -0.833189,2.048256 -1.944107,2.048256 z m 11.386904,1.701094 c 2.187121,0 3.784066,-1.753168 3.784066,-4.56518 0,-2.812013 -1.596945,-4.478391 -3.784066,-4.478391 -0.989412,0 -2.10033,0.486027 -2.655789,1.440723 v -4.894985 h -2.447492 v 12.289536 h 2.117688 l 0.329804,-1.180351 c 0.555459,0.937337 1.666377,1.388648 2.655789,1.388648 z m -0.763756,-1.926749 c -1.110919,0 -1.996182,-0.763757 -1.996182,-2.603715 0,-1.787885 0.885263,-2.586357 1.996182,-2.586357 1.09356,0 1.978823,0.902621 1.978823,2.551641 0,1.666377 -0.885263,2.638431 -1.978823,2.638431 z m 8.453398,1.926749 c 1.267141,0 2.256553,-0.381878 2.881445,-1.267141 l 0.312445,1.058844 h 2.273912 c -0.156223,-0.763757 -0.295088,-2.169763 -0.295088,-3.350114 v -1.909391 c 0,-2.568999 -1.353932,-3.575769 -3.818782,-3.575769 -1.874675,0 -3.228607,0.850547 -3.766708,2.030898 l 2.082972,0.729041 c 0.173581,-0.711683 0.781114,-1.076203 1.562229,-1.076203 1.041486,0 1.596945,0.486027 1.596945,1.492797 v 0.260371 c -3.523694,0.260372 -5.814964,1.058845 -5.814964,3.089742 0,1.562229 1.336574,2.516925 2.985594,2.516925 z m 0.885263,-1.701094 c -0.781115,0 -1.319216,-0.399236 -1.319216,-0.989412 0,-0.902621 1.197709,-1.267141 3.263323,-1.406006 v 0.347162 c 0,1.579587 -0.833189,2.048256 -1.944107,2.048256 z m 6.283625,1.492797 h 2.447492 v -4.530465 c 0,-1.54487 0.538101,-2.378059 1.649019,-2.378059 1.2845,0 1.37129,1.024128 1.37129,2.256553 v 4.651971 h 2.464851 v -4.565181 c 0,-1.562229 0.520743,-2.343343 1.614303,-2.343343 1.319216,0 1.423364,1.024128 1.423364,2.256553 v 4.651971 h 2.447493 v -5.276863 c 0,-2.273911 -0.711683,-3.558411 -2.881445,-3.558411 -1.215067,0 -2.273911,0.486027 -2.933519,1.458081 -0.399237,-0.937337 -1.180351,-1.458081 -2.551641,-1.458081 -1.284499,0 -2.204479,0.729041 -2.603715,1.388649 L 59.875865,48.45128 h -2.117688 z m 17.757324,0.208297 c 1.267141,0 2.256553,-0.381878 2.881445,-1.267141 l 0.312446,1.058844 h 2.273911 C 80.82708,56.297141 80.688215,54.891135 80.688215,53.710784 v -1.909391 c 0,-2.568999 -1.353932,-3.575769 -3.818782,-3.575769 -1.874675,0 -3.228607,0.850547 -3.766708,2.030898 l 2.082972,0.729041 c 0.173581,-0.711683 0.781115,-1.076203 1.562229,-1.076203 1.041486,0 1.596946,0.486027 1.596946,1.492797 v 0.260371 c -3.523695,0.260372 -5.814964,1.058845 -5.814964,3.089742 0,1.562229 1.336574,2.516925 2.985593,2.516925 z m 0.885263,-1.701094 c -0.781114,0 -1.319215,-0.399236 -1.319215,-0.989412 0,-0.902621 1.197709,-1.267141 3.263323,-1.406006 v 0.347162 c 0,1.579587 -0.833189,2.048256 -1.944108,2.048256 z m 5.554573,-6.075335 h 1.805242 l 0.243014,-4.02708 h -2.29127 z m 6.752296,7.793787 c 2.221837,0 4.044438,-0.989412 4.044438,-2.881445 0,-1.527512 -0.972054,-2.169762 -3.002952,-2.55164 l -1.45808,-0.27773 c -0.798473,-0.138865 -1.110919,-0.347162 -1.110919,-0.763756 0,-0.468669 0.520743,-0.798473 1.440723,-0.798473 0.867905,0 1.510155,0.295088 1.770526,0.937337 l 2.10033,-0.763756 c -0.642249,-1.423364 -2.169762,-1.961466 -3.801424,-1.961466 -2.01354,0 -3.853498,0.937338 -3.853498,2.707864 0,1.423364 1.128276,2.204479 2.759938,2.516925 l 1.406006,0.243013 c 1.041486,0.190939 1.388648,0.451311 1.388648,0.867905 0,0.607534 -0.781114,0.91998 -1.64902,0.91998 -0.989411,0 -1.892033,-0.416595 -2.10033,-1.162993 l -2.117688,0.763756 c 0.624892,1.423365 2.221837,2.204479 4.183302,2.204479 z m 13.452507,-0.225655 h 2.569 V 47.72224 h 3.74935 V 45.465686 H 98.410793 v 2.256554 h 3.749347 z m 6.73492,0 h 2.44749 v -4.235377 c 0,-1.683736 0.88526,-2.325985 2.75994,-2.135046 v -2.464851 c -1.33657,-0.05207 -2.27391,0.468669 -2.81201,1.805243 l -0.46867,-1.579587 h -1.92675 z m 8.80056,0.208297 c 1.26714,0 2.25656,-0.381878 2.88145,-1.267141 l 0.31244,1.058844 h 2.27392 c -0.15623,-0.763757 -0.29509,-2.169763 -0.29509,-3.350114 v -1.909391 c 0,-2.568999 -1.35393,-3.575769 -3.81878,-3.575769 -1.87468,0 -3.22861,0.850547 -3.76671,2.030898 l 2.08297,0.729041 c 0.17358,-0.711683 0.78111,-1.076203 1.56223,-1.076203 1.04148,0 1.59694,0.486027 1.59694,1.492797 v 0.260371 c -3.52369,0.260372 -5.81496,1.058845 -5.81496,3.089742 0,1.562229 1.33657,2.516925 2.98559,2.516925 z m 0.88527,-1.701094 c -0.78112,0 -1.31922,-0.399236 -1.31922,-0.989412 0,-0.902621 1.19771,-1.267141 3.26332,-1.406006 v 0.347162 c 0,1.579587 -0.83318,2.048256 -1.9441,2.048256 z m 6.28362,1.492797 h 2.44749 v -4.461032 c 0,-1.614303 0.55546,-2.447492 1.7011,-2.447492 1.33657,0 1.42336,1.024128 1.42336,2.256553 v 4.651971 h 2.44749 v -5.276863 c 0,-2.273911 -0.69432,-3.558411 -2.8988,-3.558411 -1.33657,0 -2.27391,0.729041 -2.67315,1.388649 l -0.3298,-1.162993 h -2.11769 z m 13.45254,0.225655 c 2.22184,0 4.04444,-0.989412 4.04444,-2.881445 0,-1.527512 -0.97205,-2.169762 -3.00295,-2.55164 l -1.45808,-0.27773 c -0.79847,-0.138865 -1.11092,-0.347162 -1.11092,-0.763756 0,-0.468669 0.52074,-0.798473 1.44072,-0.798473 0.86791,0 1.51016,0.295088 1.77053,0.937337 l 2.10033,-0.763756 c -0.64225,-1.423364 -2.16976,-1.961466 -3.80142,-1.961466 -2.01354,0 -3.8535,0.937338 -3.8535,2.707864 0,1.423364 1.12827,2.204479 2.75994,2.516925 l 1.406,0.243013 c 1.04149,0.190939 1.38865,0.451311 1.38865,0.867905 0,0.607534 -0.78111,0.91998 -1.64902,0.91998 -0.98941,0 -1.89203,-0.416595 -2.10033,-1.162993 l -2.11769,0.763756 c 0.62489,1.423365 2.22184,2.204479 4.1833,2.204479 z m 9.44281,3.263323 c 2.58636,0 4.28745,-1.180351 4.28745,-4.044437 V 48.45128 h -2.08297 l -0.34716,1.215067 c -0.64225,-0.937338 -1.66638,-1.458081 -2.81202,-1.458081 -1.80524,0 -3.62784,1.406007 -3.62784,4.356884 0,2.655789 1.8226,4.20066 3.71464,4.20066 1.02412,0 2.01353,-0.451311 2.72522,-1.37129 v 1.510155 c 0,1.353932 -0.88527,1.770526 -1.78789,1.770526 -0.93733,0 -1.51015,-0.381878 -1.8226,-0.937337 l -2.01354,0.850547 c 0.7464,1.492796 2.34335,1.961465 3.76671,1.961465 z m -0.0347,-5.693457 c -1.09356,0 -1.97882,-0.798473 -1.97882,-2.395418 0,-1.579587 0.88526,-2.308627 1.97882,-2.308627 1.07621,0 1.97883,0.607533 1.97883,2.360701 0,1.770527 -0.90262,2.343344 -1.97883,2.343344 z m 10.41487,2.412776 c 1.44072,0 2.84673,-0.624892 3.71463,-1.892033 l -1.99618,-0.711682 c -0.34716,0.399236 -0.93734,0.676966 -1.78789,0.676966 -0.93733,0 -1.90939,-0.538101 -2.1524,-1.944107 h 6.47457 c 0.2083,-2.968236 -1.52751,-5.172715 -4.35688,-5.172715 -2.48221,0 -4.54782,1.753169 -4.54782,4.495749 0,2.794654 1.87467,4.547822 4.65197,4.547822 z m 1.9441,-5.398369 h -4.1833 c 0.26037,-1.319216 1.18035,-1.787885 2.20448,-1.787885 1.09356,0 1.90939,0.676966 1.97882,1.787885 z m 3.66254,5.190072 h 2.44749 v -4.461032 c 0,-1.614303 0.55546,-2.447492 1.7011,-2.447492 1.33657,0 1.42336,1.024128 1.42336,2.256553 v 4.651971 h 2.4475 v -5.276863 c 0,-2.273911 -0.69433,-3.558411 -2.89881,-3.558411 -1.33657,0 -2.27391,0.729041 -2.67315,1.388649 l -0.3298,-1.162993 h -2.11769 z m 13.24425,0.208297 c 0.98941,0 1.97882,-0.399236 2.72522,-1.336574 l 0.34716,1.128277 h 2.32599 c -0.24302,-1.301858 -0.29509,-2.534283 -0.29509,-3.350114 v -8.939422 h -2.44749 v 4.894985 c -0.55546,-0.954696 -1.64902,-1.440723 -2.65579,-1.440723 -2.16976,0 -3.78407,1.666378 -3.78407,4.478391 0,2.812012 1.61431,4.56518 3.78407,4.56518 z m 0.78111,-1.926749 c -1.11092,0 -1.99618,-0.972054 -1.99618,-2.638431 0,-1.64902 0.88526,-2.551641 1.99618,-2.551641 1.09356,0 1.97883,0.798472 1.97883,2.586357 0,1.839958 -0.88527,2.603715 -1.97883,2.603715 z m 10.44959,1.926749 c 1.44072,0 2.84672,-0.624892 3.71463,-1.892033 l -1.99618,-0.711682 c -0.34716,0.399236 -0.93734,0.676966 -1.78789,0.676966 -0.93733,0 -1.90939,-0.538101 -2.1524,-1.944107 h 6.47457 c 0.2083,-2.968236 -1.52751,-5.172715 -4.35688,-5.172715 -2.48221,0 -4.54783,1.753169 -4.54783,4.495749 0,2.794654 1.87468,4.547822 4.65198,4.547822 z m 1.9441,-5.398369 h -4.1833 c 0.26037,-1.319216 1.18035,-1.787885 2.20448,-1.787885 1.09356,0 1.90939,0.676966 1.97882,1.787885 z m 3.66254,5.190072 h 2.44749 v -4.235377 c 0,-1.683736 0.88527,-2.325985 2.75994,-2.135046 v -2.464851 c -1.33657,-0.05207 -2.27391,0.468669 -2.81201,1.805243 l -0.46867,-1.579587 h -1.92675 z"
         id="path1" /><path
         style="font-size:17.3581px;text-align:center;text-anchor:middle;fill-rule:evenodd;stroke:#000000;stroke-linecap:butt;paint-order:fill markers stroke"
         d="m 22.217431,73.078354 c 1.267141,0 2.256553,-0.381878 2.881445,-1.267141 l 0.312446,1.058844 h 2.273911 C 27.52901,72.106301 27.390145,70.700294 27.390145,69.519944 v -1.909391 c 0,-2.568999 -1.353932,-3.575769 -3.818782,-3.575769 -1.874675,0 -3.228607,0.850547 -3.766708,2.030898 l 2.082972,0.72904 c 0.173581,-0.711682 0.781115,-1.076202 1.562229,-1.076202 1.041486,0 1.596946,0.486026 1.596946,1.492796 v 0.260372 c -3.523695,0.260371 -5.814964,1.058844 -5.814964,3.089742 0,1.562229 1.336573,2.516924 2.985593,2.516924 z m 0.885263,-1.701094 c -0.781114,0 -1.319215,-0.399236 -1.319215,-0.989411 0,-0.902622 1.197709,-1.267142 3.263323,-1.406006 v 0.347162 c 0,1.579587 -0.833189,2.048255 -1.944108,2.048255 z m 6.283624,1.492797 h 2.447492 v -4.461032 c 0,-1.614303 0.555459,-2.447492 1.701094,-2.447492 1.336574,0 1.423364,1.024128 1.423364,2.256553 v 4.651971 h 2.447493 v -5.276863 c 0,-2.273911 -0.694325,-3.55841 -2.898803,-3.55841 -1.336574,0 -2.273912,0.72904 -2.673148,1.388648 l -0.329804,-1.162993 h -2.117688 z m 13.244239,0.208297 c 0.989412,0 1.978823,-0.399236 2.725222,-1.336573 l 0.347162,1.128276 h 2.325985 C 47.785913,71.5682 47.733838,70.335774 47.733838,69.519944 v -8.939422 h -2.447492 v 4.894984 c -0.555459,-0.954695 -1.649019,-1.440722 -2.655789,-1.440722 -2.169763,0 -3.784066,1.666377 -3.784066,4.47839 0,2.812012 1.614303,4.56518 3.784066,4.56518 z m 0.781114,-1.926749 c -1.110918,0 -1.996181,-0.972054 -1.996181,-2.638431 0,-1.64902 0.885263,-2.551641 1.996181,-2.551641 1.093561,0 1.978824,0.798473 1.978824,2.586357 0,1.839959 -0.885263,2.603715 -1.978824,2.603715 z"
         id="path2" /><path
         style="font-size:17.3581px;text-align:center;text-anchor:middle;opacity:1;fill-rule:evenodd;stroke:#000000;stroke-linecap:butt;paint-order:fill markers stroke"
         d="m 60.179584,73.078354 c 1.64902,0 2.82937,-0.486027 3.575769,-1.527513 l 0.381878,1.319216 h 1.666378 v -6.474572 h -5.276863 v 2.100331 h 2.725222 v 0.329804 c 0,1.631661 -1.406006,2.135046 -2.707864,2.135046 -1.857317,0 -3.124458,-1.406006 -3.124458,-3.922931 0,-2.534283 1.37129,-3.853498 3.1071,-3.853498 1.249783,0 2.048256,0.555459 2.430134,1.249783 l 2.325986,-0.850547 c -0.833189,-1.666378 -2.65579,-2.516924 -4.704046,-2.516924 -3.488978,0 -5.867038,2.325985 -5.867038,5.971186 0,3.679918 2.065614,6.040619 5.467802,6.040619 z m 11.612568,0 c 1.440722,0 2.846728,-0.624891 3.714633,-1.892033 l -1.996181,-0.711682 c -0.347162,0.399237 -0.937338,0.676966 -1.787885,0.676966 -0.937337,0 -1.909391,-0.538101 -2.152404,-1.944107 h 6.474571 c 0.208297,-2.968235 -1.527513,-5.172714 -4.356883,-5.172714 -2.482208,0 -4.547822,1.753168 -4.547822,4.495748 0,2.794654 1.874674,4.547822 4.651971,4.547822 z m 1.944107,-5.398369 h -4.183302 c 0.260371,-1.319216 1.18035,-1.787884 2.204478,-1.787884 1.093561,0 1.909391,0.676965 1.978824,1.787884 z m 3.662545,5.190072 h 2.447493 v -4.461032 c 0,-1.614303 0.555459,-2.447492 1.701093,-2.447492 1.336574,0 1.423365,1.024128 1.423365,2.256553 v 4.651971 h 2.447492 v -5.276863 c 0,-2.273911 -0.694324,-3.55841 -2.898803,-3.55841 -1.336574,0 -2.273911,0.72904 -2.673147,1.388648 l -0.329804,-1.162993 h -2.117689 z m 13.244242,0.208297 c 0.989412,0 1.978824,-0.399236 2.725222,-1.336573 l 0.347162,1.128276 h 2.325985 C 95.798402,71.5682 95.746328,70.335774 95.746328,69.519944 v -8.939422 h -2.447492 v 4.894984 c -0.55546,-0.954695 -1.64902,-1.440722 -2.65579,-1.440722 -2.169763,0 -3.784066,1.666377 -3.784066,4.47839 0,2.812012 1.614303,4.56518 3.784066,4.56518 z m 0.781115,-1.926749 c -1.110919,0 -1.996182,-0.972054 -1.996182,-2.638431 0,-1.64902 0.885263,-2.551641 1.996182,-2.551641 1.09356,0 1.978823,0.798473 1.978823,2.586357 0,1.839959 -0.885263,2.603715 -1.978823,2.603715 z m 10.449579,1.926749 c 1.44072,0 2.84673,-0.624891 3.71463,-1.892033 l -1.99618,-0.711682 c -0.34716,0.399237 -0.93734,0.676966 -1.78789,0.676966 -0.93733,0 -1.909387,-0.538101 -2.1524,-1.944107 h 6.47457 c 0.2083,-2.968235 -1.52751,-5.172714 -4.35688,-5.172714 -2.482211,0 -4.547825,1.753168 -4.547825,4.495748 0,2.794654 1.874675,4.547822 4.651975,4.547822 z m 1.9441,-5.398369 h -4.183299 c 0.260372,-1.319216 1.180349,-1.787884 2.204479,-1.787884 1.09356,0 1.90939,0.676965 1.97882,1.787884 z m 3.66255,5.190072 h 2.44749 V 68.63468 c 0,-1.683735 0.88526,-2.325985 2.75994,-2.135046 v -2.46485 c -1.33657,-0.05208 -2.27391,0.468668 -2.81201,1.805242 l -0.46867,-1.579587 h -1.92675 z m 11.69935,0 h 3.73199 c 3.90558,0 6.64816,-1.492797 6.64816,-5.797606 0,-4.235376 -2.70787,-5.797605 -6.64816,-5.797605 h -3.73199 z m 3.76671,-2.169763 h -1.19771 v -7.290402 h 1.19771 c 2.25655,0 3.975,0.64225 3.975,3.662559 0,3.02031 -1.70109,3.627843 -3.975,3.627843 z m 8.93941,2.169763 h 2.46485 v -8.609618 h -3.87086 v 1.857317 h 1.40601 z m 1.09356,-10.067698 c 0.81583,0 1.47544,-0.659608 1.47544,-1.492797 0,-0.815831 -0.65961,-1.475439 -1.47544,-1.475439 -0.83319,0 -1.4928,0.659608 -1.4928,1.475439 0,0.833189 0.65961,1.492797 1.4928,1.492797 z m 5.62402,10.067698 h 2.74258 l 3.08975,-8.609618 h -2.55164 l -1.9094,5.988545 -1.89203,-5.988545 h -2.55164 z m 10.84884,0.208297 c 1.44072,0 2.84673,-0.624891 3.71463,-1.892033 l -1.99618,-0.711682 c -0.34716,0.399237 -0.93733,0.676966 -1.78788,0.676966 -0.93734,0 -1.90939,-0.538101 -2.15241,-1.944107 h 6.47458 c 0.20829,-2.968235 -1.52752,-5.172714 -4.35689,-5.172714 -2.48221,0 -4.54782,1.753168 -4.54782,4.495748 0,2.794654 1.87467,4.547822 4.65197,4.547822 z m 1.94411,-5.398369 h -4.1833 c 0.26037,-1.319216 1.18035,-1.787884 2.20447,-1.787884 1.09357,0 1.9094,0.676965 1.97883,1.787884 z m 3.66254,5.190072 h 2.4475 V 68.63468 c 0,-1.683735 0.88526,-2.325985 2.75993,-2.135046 v -2.46485 c -1.33657,-0.05208 -2.27391,0.468668 -2.81201,1.805242 l -0.46867,-1.579587 h -1.92675 z m 10.06772,0.225655 c 2.22184,0 4.04444,-0.989411 4.04444,-2.881444 0,-1.527513 -0.97206,-2.169763 -3.00295,-2.551641 l -1.45808,-0.27773 c -0.79848,-0.138865 -1.11092,-0.347162 -1.11092,-0.763756 0,-0.468669 0.52074,-0.798473 1.44072,-0.798473 0.8679,0 1.51015,0.295088 1.77053,0.937338 l 2.10033,-0.763757 c -0.64225,-1.423364 -2.16977,-1.961465 -3.80143,-1.961465 -2.01354,0 -3.8535,0.937337 -3.8535,2.707863 0,1.423365 1.12828,2.204479 2.75994,2.516925 l 1.40601,0.243014 c 1.04148,0.190939 1.38865,0.45131 1.38865,0.867905 0,0.607533 -0.78112,0.919979 -1.64902,0.919979 -0.98942,0 -1.89204,-0.416594 -2.10033,-1.162993 l -2.11769,0.763757 c 0.62489,1.423364 2.22183,2.204478 4.1833,2.204478 z m 6.12741,-0.225655 h 2.46485 v -8.609618 h -3.87086 v 1.857317 h 1.40601 z m 1.09356,-10.067698 c 0.81583,0 1.47544,-0.659608 1.47544,-1.492797 0,-0.815831 -0.65961,-1.475439 -1.47544,-1.475439 -0.83319,0 -1.4928,0.659608 -1.4928,1.475439 0,0.833189 0.65961,1.492797 1.4928,1.492797 z m 6.73494,10.067698 h 1.57958 v -2.01354 h -0.78111 c -0.83319,0 -1.0762,-0.156223 -1.0762,-0.989411 v -3.731992 h 1.85731 v -1.874675 h -1.85731 v -2.152404 h -2.44749 v 2.152404 h -1.42337 v 1.874675 h 1.42337 v 4.339525 c 0,1.996182 0.67696,2.395418 2.72522,2.395418 z m 3.26334,2.812012 h 1.00677 c 2.10033,0 2.70787,-0.624891 3.5237,-2.759938 l 3.24596,-8.661692 h -2.63843 l -1.70109,5.57195 -1.77053,-5.57195 h -2.63843 l 3.26332,8.574902 -0.0868,0.225655 c -0.26037,0.72904 -0.5381,0.815831 -1.57959,0.815831 h -0.62489 z"
         id="path3" /><path
         style="font-size:17.3581px;text-align:center;text-anchor:middle;opacity:1;fill-rule:evenodd;stroke:#5bcefa;stroke-linecap:butt;paint-order:fill markers stroke"
         d="m 54.46008,88.887514 c 3.506337,0 5.936471,-2.412776 5.936471,-6.005903 0,-3.593127 -2.430134,-6.005903 -5.936471,-6.005903 -3.506336,0 -5.93647,2.412776 -5.93647,6.005903 0,3.593127 2.430134,6.005903 5.93647,6.005903 z m 0,-2.117689 c -1.753168,0 -3.211248,-1.336573 -3.211248,-3.888214 0,-2.551641 1.45808,-3.888215 3.211248,-3.888215 1.753169,0 3.211249,1.336574 3.211249,3.888215 0,2.551641 -1.45808,3.888214 -3.211249,3.888214 z m 7.46397,1.909391 h 2.447492 V 84.44384 c 0,-1.683736 0.885263,-2.325986 2.759938,-2.135047 v -2.46485 c -1.336573,-0.05207 -2.273911,0.468669 -2.812012,1.805243 L 63.850799,80.069598 H 61.92405 Z m 10.536381,3.488979 c 2.586357,0 4.287451,-1.180351 4.287451,-4.044438 V 80.069598 H 74.66491 l -0.347162,1.215067 c -0.64225,-0.937337 -1.666378,-1.45808 -2.812012,-1.45808 -1.805243,0 -3.627844,1.406006 -3.627844,4.356883 0,2.65579 1.822601,4.200661 3.714634,4.200661 1.024128,0 2.01354,-0.451311 2.725222,-1.37129 v 1.510154 c 0,1.353932 -0.885263,1.770527 -1.787885,1.770527 -0.937337,0 -1.510154,-0.381878 -1.8226,-0.937338 l -2.01354,0.850547 c 0.746399,1.492797 2.343344,1.961466 3.766708,1.961466 z m -0.03472,-5.693457 c -1.09356,0 -1.978824,-0.798473 -1.978824,-2.395418 0,-1.579588 0.885264,-2.308628 1.978824,-2.308628 1.076202,0 1.978823,0.607534 1.978823,2.360702 0,1.770526 -0.902621,2.343344 -1.978823,2.343344 z m 8.661691,2.412776 c 1.267142,0 2.256553,-0.381879 2.881445,-1.267142 l 0.312446,1.058844 h 2.273911 C 86.398985,87.91546 86.26012,86.509454 86.26012,85.329103 v -1.909391 c 0,-2.568999 -1.353932,-3.575769 -3.818782,-3.575769 -1.874675,0 -3.228607,0.850547 -3.766708,2.030898 l 2.082972,0.72904 c 0.173581,-0.711682 0.781115,-1.076202 1.562229,-1.076202 1.041486,0 1.596946,0.486027 1.596946,1.492796 v 0.260372 c -3.523695,0.260372 -5.814964,1.058844 -5.814964,3.089742 0,1.562229 1.336574,2.516925 2.985593,2.516925 z m 0.885263,-1.701094 c -0.781114,0 -1.319215,-0.399237 -1.319215,-0.989412 0,-0.902621 1.197709,-1.267141 3.263323,-1.406006 v 0.347162 c 0,1.579587 -0.833189,2.048256 -1.944108,2.048256 z m 6.283625,1.492796 h 2.447492 v -4.461032 c 0,-1.614303 0.555459,-2.447492 1.701094,-2.447492 1.336574,0 1.423364,1.024128 1.423364,2.256553 v 4.651971 h 2.447493 v -5.276862 c 0,-2.273912 -0.694324,-3.558411 -2.898803,-3.558411 -1.336574,0 -2.273911,0.72904 -2.673148,1.388648 l -0.329804,-1.162993 h -2.117688 z m 10.588458,0 h 2.464848 v -8.609618 h -3.870854 v 1.857317 h 1.406006 z m 1.093561,-10.067698 c 0.815827,0 1.475437,-0.659608 1.475437,-1.492797 0,-0.815831 -0.65961,-1.475438 -1.475437,-1.475438 -0.833189,0 -1.492797,0.659607 -1.492797,1.475438 0,0.833189 0.659608,1.492797 1.492797,1.492797 z m 2.933517,10.067698 h 7.88058 v -1.978823 h -4.73876 l 4.49575,-4.651971 v -1.978824 h -7.41191 v 1.978824 h 4.28745 l -4.51311,4.651971 z m 11.64729,0.208298 c 1.26714,0 2.25655,-0.381879 2.88144,-1.267142 l 0.31245,1.058844 h 2.27391 c -0.15622,-0.763756 -0.29509,-2.169762 -0.29509,-3.350113 v -1.909391 c 0,-2.568999 -1.35393,-3.575769 -3.81878,-3.575769 -1.87467,0 -3.22861,0.850547 -3.76671,2.030898 l 2.08298,0.72904 c 0.17358,-0.711682 0.78111,-1.076202 1.56222,-1.076202 1.04149,0 1.59695,0.486027 1.59695,1.492796 v 0.260372 c -3.52369,0.260372 -5.81496,1.058844 -5.81496,3.089742 0,1.562229 1.33657,2.516925 2.98559,2.516925 z m 0.88526,-1.701094 c -0.78111,0 -1.31921,-0.399237 -1.31921,-0.989412 0,-0.902621 1.19771,-1.267141 3.26332,-1.406006 v 0.347162 c 0,1.579587 -0.83319,2.048256 -1.94411,2.048256 z m 9.47752,1.492796 h 1.57959 v -2.013539 h -0.78111 c -0.83319,0 -1.07621,-0.156223 -1.07621,-0.989412 v -3.731992 h 1.85732 v -1.874675 h -1.85732 v -2.152404 h -2.44749 v 2.152404 h -1.42336 v 1.874675 h 1.42336 v 4.339525 c 0,1.996182 0.67697,2.395418 2.72522,2.395418 z m 3.99239,0 h 2.46485 v -8.609618 h -3.87086 v 1.857317 h 1.40601 z m 1.09356,-10.067698 c 0.81583,0 1.47544,-0.659608 1.47544,-1.492797 0,-0.815831 -0.65961,-1.475438 -1.47544,-1.475438 -0.83319,0 -1.4928,0.659607 -1.4928,1.475438 0,0.833189 0.65961,1.492797 1.4928,1.492797 z m 7.3772,10.275996 c 2.34334,0 4.49574,-1.406007 4.49574,-4.530465 0,-3.1071 -2.1524,-4.513106 -4.49574,-4.513106 -2.32599,0 -4.49575,1.406006 -4.49575,4.513106 0,3.124458 2.16976,4.530465 4.49575,4.530465 z m 0,-1.92675 c -1.07621,0 -1.97883,-0.694324 -1.97883,-2.603715 0,-1.892033 0.90262,-2.586357 1.97883,-2.586357 1.09356,0 1.99618,0.694324 1.99618,2.586357 0,1.909391 -0.90262,2.603715 -1.99618,2.603715 z m 5.98853,1.718452 h 2.4475 v -4.461032 c 0,-1.614303 0.55546,-2.447492 1.70109,-2.447492 1.33657,0 1.42336,1.024128 1.42336,2.256553 v 4.651971 h 2.4475 v -5.276862 c 0,-2.273912 -0.69433,-3.558411 -2.89881,-3.558411 -1.33657,0 -2.27391,0.72904 -2.67314,1.388648 l -0.32981,-1.162993 h -2.11769 z m 13.45255,0.225656 c 2.22183,0 4.04443,-0.989412 4.04443,-2.881445 0,-1.527513 -0.97205,-2.169763 -3.00295,-2.551641 l -1.45808,-0.277729 c -0.79847,-0.138865 -1.11092,-0.347163 -1.11092,-0.763757 0,-0.468669 0.52075,-0.798473 1.44073,-0.798473 0.8679,0 1.51015,0.295088 1.77052,0.937338 l 2.10033,-0.763757 c -0.64225,-1.423364 -2.16976,-1.961465 -3.80142,-1.961465 -2.01354,0 -3.8535,0.937337 -3.8535,2.707864 0,1.423364 1.12828,2.204479 2.75994,2.516924 l 1.406,0.243014 c 1.04149,0.190939 1.38865,0.45131 1.38865,0.867905 0,0.607533 -0.78111,0.919979 -1.64902,0.919979 -0.98941,0 -1.89203,-0.416594 -2.10033,-1.162993 l -2.11769,0.763757 c 0.6249,1.423364 2.22184,2.204479 4.18331,2.204479 z"
         id="path4" /><title
         id="title1">ALTGO Logo</title></g></g><g
     id="altgo-title"
     transform="translate(-8.8416162,-4.3321701)"><path
       style="font-weight:bold;font-size:52.9167px;font-family:'Atkinson Hyperlegible Next';-inkscape-font-specification:'Atkinson Hyperlegible Next Bold';letter-spacing:0px;fill-rule:evenodd;stroke:#5bcefa;stroke-width:0;stroke-linejoin:round;paint-order:stroke fill markers"
       d="m 19.817054,40.315525 h 8.519588 l 2.169585,-6.508754 h 13.970008 l 2.169585,6.508754 h 8.519588 L 41.8304,4.9671705 H 33.152062 Z M 32.622895,27.403851 37.438314,13.222175 42.306651,27.403851 Z M 58.605011,40.315525 H 83.740442 V 33.436354 H 66.436682 V 4.9671705 h -7.831671 z m 33.655029,0 h 7.83167 V 11.846341 h 11.43001 V 4.9671705 H 80.830033 V 11.846341 H 92.26004 Z m 37.25335,0.635 c 5.02709,0 8.62542,-1.481667 10.90084,-4.656669 l 1.16417,4.021669 h 5.08 V 20.577597 h -16.08668 v 6.40292 h 8.30792 v 1.005417 c 0,4.97417 -4.28625,6.508754 -8.255,6.508754 -5.66209,0 -9.52501,-4.286252 -9.52501,-11.959174 0,-7.725838 4.18042,-11.747507 9.47209,-11.747507 3.81001,0 6.24417,1.693335 7.40834,3.810003 l 7.09084,-2.592919 c -2.54,-5.0800027 -8.09626,-7.6729209 -14.34043,-7.6729209 -10.63625,0 -17.88584,7.0908379 -17.88584,18.2033439 0,11.21834 6.29709,18.415011 16.66876,18.415011 z m 39.47585,0 c 10.68917,0 18.09751,-7.355421 18.09751,-18.309177 0,-10.953757 -7.40834,-18.3091779 -18.09751,-18.3091779 -10.68918,0 -18.09751,7.3554209 -18.09751,18.3091779 0,10.953756 7.40833,18.309177 18.09751,18.309177 z m 0,-6.455837 c -5.34459,0 -9.78959,-4.074586 -9.78959,-11.85334 0,-7.778755 4.445,-11.853341 9.78959,-11.853341 5.34458,0 9.78959,4.074586 9.78959,11.853341 0,7.778754 -4.44501,11.85334 -9.78959,11.85334 z"
       id="text15"
       aria-label="ALTGO" /></g></svg>
